%TF.GenerationSoftware,KiCad,Pcbnew,10.0.5*%
%TF.CreationDate,2026-07-29T21:39:17-04:00*%
%TF.ProjectId,PCB_Prrojects,5043425f-5072-4726-9f6a-656374732e6b,rev?*%
%TF.SameCoordinates,Original*%
%TF.FileFunction,Paste,Top*%
%TF.FilePolarity,Positive*%
%FSLAX46Y46*%
G04 Gerber Fmt 4.6, Leading zero omitted, Abs format (unit mm)*
G04 Created by KiCad (PCBNEW 10.0.5) date 2026-07-29 21:39:17*
%MOMM*%
%LPD*%
G01*
G04 APERTURE LIST*
G04 Aperture macros list*
%AMRoundRect*
0 Rectangle with rounded corners*
0 $1 Rounding radius*
0 $2 $3 $4 $5 $6 $7 $8 $9 X,Y pos of 4 corners*
0 Add a 4 corners polygon primitive as box body*
4,1,4,$2,$3,$4,$5,$6,$7,$8,$9,$2,$3,0*
0 Add four circle primitives for the rounded corners*
1,1,$1+$1,$2,$3*
1,1,$1+$1,$4,$5*
1,1,$1+$1,$6,$7*
1,1,$1+$1,$8,$9*
0 Add four rect primitives between the rounded corners*
20,1,$1+$1,$2,$3,$4,$5,0*
20,1,$1+$1,$4,$5,$6,$7,0*
20,1,$1+$1,$6,$7,$8,$9,0*
20,1,$1+$1,$8,$9,$2,$3,0*%
G04 Aperture macros list end*
%ADD10RoundRect,0.225000X-0.225000X-0.250000X0.225000X-0.250000X0.225000X0.250000X-0.225000X0.250000X0*%
%ADD11RoundRect,0.250000X-2.025000X-2.375000X2.025000X-2.375000X2.025000X2.375000X-2.025000X2.375000X0*%
%ADD12RoundRect,0.250000X-2.050000X-0.300000X2.050000X-0.300000X2.050000X0.300000X-2.050000X0.300000X0*%
%ADD13RoundRect,0.250001X-0.859999X-2.249999X0.859999X-2.249999X0.859999X2.249999X-0.859999X2.249999X0*%
%ADD14RoundRect,0.100000X-0.675000X-0.100000X0.675000X-0.100000X0.675000X0.100000X-0.675000X0.100000X0*%
%ADD15RoundRect,0.250000X-0.315000X-0.315000X0.315000X-0.315000X0.315000X0.315000X-0.315000X0.315000X0*%
%ADD16RoundRect,0.062500X-0.375000X-0.062500X0.375000X-0.062500X0.375000X0.062500X-0.375000X0.062500X0*%
%ADD17RoundRect,0.062500X-0.062500X-0.375000X0.062500X-0.375000X0.062500X0.375000X-0.062500X0.375000X0*%
%ADD18RoundRect,0.200000X-0.200000X-0.275000X0.200000X-0.275000X0.200000X0.275000X-0.200000X0.275000X0*%
%ADD19R,2.900000X5.400000*%
%ADD20RoundRect,0.250000X-1.500000X-0.550000X1.500000X-0.550000X1.500000X0.550000X-1.500000X0.550000X0*%
G04 APERTURE END LIST*
D10*
%TO.C,C4*%
X168775000Y-58500000D03*
X167225000Y-58500000D03*
%TD*%
D11*
%TO.C,U3*%
X90225000Y-44825000D03*
X90225000Y-50375000D03*
X95075000Y-44825000D03*
X95075000Y-50375000D03*
D12*
X83500000Y-44200000D03*
X83500000Y-45900000D03*
X83500000Y-47600000D03*
X83500000Y-49300000D03*
X83500000Y-51000000D03*
%TD*%
D13*
%TO.C,U2*%
X138625000Y-87575000D03*
D14*
X135750000Y-83350000D03*
X135750000Y-84000000D03*
X135750000Y-84650000D03*
X135750000Y-85300000D03*
X135750000Y-85950000D03*
X135750000Y-86600000D03*
X135750000Y-87250000D03*
X135750000Y-87900000D03*
X135750000Y-88550000D03*
X135750000Y-89200000D03*
X135750000Y-89850000D03*
X135750000Y-90500000D03*
X135750000Y-91150000D03*
X135750000Y-91800000D03*
X141500000Y-91800000D03*
X141500000Y-91150000D03*
X141500000Y-90500000D03*
X141500000Y-89850000D03*
X141500000Y-89200000D03*
X141500000Y-88550000D03*
X141500000Y-87900000D03*
X141500000Y-87250000D03*
X141500000Y-86600000D03*
X141500000Y-85950000D03*
X141500000Y-85300000D03*
X141500000Y-84650000D03*
X141500000Y-84000000D03*
X141500000Y-83350000D03*
%TD*%
D15*
%TO.C,U1*%
X114600000Y-68700000D03*
X114600000Y-70100000D03*
X114600000Y-71500000D03*
X114600000Y-72900000D03*
X116000000Y-68700000D03*
X116000000Y-70100000D03*
X116000000Y-71500000D03*
X116000000Y-72900000D03*
X117400000Y-68700000D03*
X117400000Y-70100000D03*
X117400000Y-71500000D03*
X117400000Y-72900000D03*
X118800000Y-68700000D03*
X118800000Y-70100000D03*
X118800000Y-71500000D03*
X118800000Y-72900000D03*
D16*
X113262500Y-68050000D03*
X113262500Y-68550000D03*
X113262500Y-69050000D03*
X113262500Y-69550000D03*
X113262500Y-70050000D03*
X113262500Y-70550000D03*
X113262500Y-71050000D03*
X113262500Y-71550000D03*
X113262500Y-72050000D03*
X113262500Y-72550000D03*
X113262500Y-73050000D03*
X113262500Y-73550000D03*
D17*
X113950000Y-74237500D03*
X114450000Y-74237500D03*
X114950000Y-74237500D03*
X115450000Y-74237500D03*
X115950000Y-74237500D03*
X116450000Y-74237500D03*
X116950000Y-74237500D03*
X117450000Y-74237500D03*
X117950000Y-74237500D03*
X118450000Y-74237500D03*
X118950000Y-74237500D03*
X119450000Y-74237500D03*
D16*
X120137500Y-73550000D03*
X120137500Y-73050000D03*
X120137500Y-72550000D03*
X120137500Y-72050000D03*
X120137500Y-71550000D03*
X120137500Y-71050000D03*
X120137500Y-70550000D03*
X120137500Y-70050000D03*
X120137500Y-69550000D03*
X120137500Y-69050000D03*
X120137500Y-68550000D03*
X120137500Y-68050000D03*
D17*
X119450000Y-67362500D03*
X118950000Y-67362500D03*
X118450000Y-67362500D03*
X117950000Y-67362500D03*
X117450000Y-67362500D03*
X116950000Y-67362500D03*
X116450000Y-67362500D03*
X115950000Y-67362500D03*
X115450000Y-67362500D03*
X114950000Y-67362500D03*
X114450000Y-67362500D03*
X113950000Y-67362500D03*
%TD*%
D18*
%TO.C,R7*%
X127850000Y-68000000D03*
X129500000Y-68000000D03*
%TD*%
%TO.C,R6*%
X136175000Y-58500000D03*
X137825000Y-58500000D03*
%TD*%
%TO.C,R5*%
X136175000Y-46000000D03*
X137825000Y-46000000D03*
%TD*%
%TO.C,R4*%
X167350000Y-67500000D03*
X169000000Y-67500000D03*
%TD*%
%TO.C,R3*%
X151675000Y-67500000D03*
X153325000Y-67500000D03*
%TD*%
%TO.C,R2*%
X127850000Y-54000000D03*
X129500000Y-54000000D03*
%TD*%
%TO.C,R1*%
X128175000Y-46000000D03*
X129825000Y-46000000D03*
%TD*%
D19*
%TO.C,L1*%
X83050000Y-71000000D03*
X92950000Y-71000000D03*
%TD*%
D10*
%TO.C,C10*%
X100725000Y-71000000D03*
X102275000Y-71000000D03*
%TD*%
D20*
%TO.C,C9*%
X105400000Y-58500000D03*
X111000000Y-58500000D03*
%TD*%
%TO.C,C8*%
X105200000Y-46500000D03*
X110800000Y-46500000D03*
%TD*%
D10*
%TO.C,C7*%
X120000000Y-46000000D03*
X121550000Y-46000000D03*
%TD*%
%TO.C,C6*%
X151725000Y-75000000D03*
X153275000Y-75000000D03*
%TD*%
%TO.C,C5*%
X136000000Y-70500000D03*
X137550000Y-70500000D03*
%TD*%
D20*
%TO.C,C3*%
X150200000Y-58500000D03*
X155800000Y-58500000D03*
%TD*%
D10*
%TO.C,C2*%
X167225000Y-75000000D03*
X168775000Y-75000000D03*
%TD*%
%TO.C,C1*%
X120000000Y-54000000D03*
X121550000Y-54000000D03*
%TD*%
M02*
