M48
; DRILL file KiCad 10.0.5 date 2026-08-06T20:49:40
; FORMAT={-:-/ absolute / metric / decimal}
; #@! TF.CreationDate,2026-08-06T20:49:40-04:00
; #@! TF.GenerationSoftware,Kicad,Pcbnew,10.0.5
; #@! TF.FileFunction,Plated,1,2,PTH
FMAT,2
METRIC
; #@! TA.AperFunction,Plated,PTH,ViaDrill
T1C0.300
; #@! TA.AperFunction,Plated,PTH,ComponentDrill
T2C1.200
; #@! TA.AperFunction,Plated,PTH,ComponentDrill
T3C1.600
%
G90
G05
T1
X80.0Y-48.0
X80.0Y-51.0
X84.0Y-53.5
X92.65Y-47.6
X105.0Y-71.0
X114.0Y-58.5
X116.7Y-70.8
X123.0Y-54.0
X123.0Y-69.65
X123.5Y-32.5
X123.9Y-66.5
X123.9Y-67.5
X124.5Y-64.0
X125.0Y-58.0
X125.0Y-59.6
X125.0Y-69.0
X125.0Y-76.6
X125.6Y-66.5
X126.0Y-65.0
X126.5Y-68.5
X126.5Y-75.4
X127.1Y-72.949
X128.5Y-65.5
X128.834Y-71.044
X128.9Y-73.5
X128.9Y-74.3
X129.5Y-55.5
X129.5Y-59.0
X129.5Y-61.5
X129.5Y-69.4
X129.5Y-70.6
X130.0Y-91.5
X130.4Y-70.0
X131.0Y-92.9
X131.6Y-70.0
X131.6Y-72.1
X131.6Y-75.0
X131.6Y-88.0
X132.0Y-90.0
X132.5Y-88.5
X132.5Y-95.3
X133.5Y-73.6
X133.5Y-75.0
X133.5Y-84.5
X133.5Y-87.0
X133.5Y-89.15
X134.0Y-90.5
X134.1Y-72.4
X134.7Y-82.0
X135.0Y-72.4
X135.1Y-75.0
X135.1Y-78.297
X135.5Y-81.5
X136.5Y-42.5
X137.401Y-80.599
X137.5Y-35.5
X139.0Y-42.5
X140.0Y-55.0
X142.9Y-83.4
X143.0Y-88.5
X143.5Y-86.55
X143.9Y-78.5
X144.4Y-82.1
X144.4Y-85.0
X144.4Y-86.0
X144.4Y-87.5
X145.6Y-81.5
X145.6Y-85.0
X145.6Y-86.0
X145.6Y-87.5
X146.2Y-75.0
X146.5Y-80.5
X148.4Y-85.0
X148.5Y-94.7
X149.0Y-91.0
X151.0Y-68.5
X151.5Y-65.5
X153.0Y-76.5
X153.0Y-86.0
X153.434Y-94.1
X153.9Y-80.5
X153.9Y-82.0
X153.9Y-87.5
X154.0Y-93.5
X155.1Y-82.0
T2
X129.46Y-29.0
X132.0Y-29.0
X134.54Y-29.0
X187.0Y-85.46
X187.0Y-88.0
X187.0Y-90.54
T3
X82.88Y-87.5
X98.12Y-87.5
M30
