%TF.GenerationSoftware,KiCad,Pcbnew,10.0.5*%
%TF.CreationDate,2026-07-29T21:39:17-04:00*%
%TF.ProjectId,PCB_Prrojects,5043425f-5072-4726-9f6a-656374732e6b,rev?*%
%TF.SameCoordinates,Original*%
%TF.FileFunction,Copper,L2,Bot*%
%TF.FilePolarity,Positive*%
%FSLAX46Y46*%
G04 Gerber Fmt 4.6, Leading zero omitted, Abs format (unit mm)*
G04 Created by KiCad (PCBNEW 10.0.5) date 2026-07-29 21:39:17*
%MOMM*%
%LPD*%
G01*
G04 APERTURE LIST*
G04 Aperture macros list*
%AMRoundRect*
0 Rectangle with rounded corners*
0 $1 Rounding radius*
0 $2 $3 $4 $5 $6 $7 $8 $9 X,Y pos of 4 corners*
0 Add a 4 corners polygon primitive as box body*
4,1,4,$2,$3,$4,$5,$6,$7,$8,$9,$2,$3,0*
0 Add four circle primitives for the rounded corners*
1,1,$1+$1,$2,$3*
1,1,$1+$1,$4,$5*
1,1,$1+$1,$6,$7*
1,1,$1+$1,$8,$9*
0 Add four rect primitives between the rounded corners*
20,1,$1+$1,$2,$3,$4,$5,0*
20,1,$1+$1,$4,$5,$6,$7,0*
20,1,$1+$1,$6,$7,$8,$9,0*
20,1,$1+$1,$8,$9,$2,$3,0*%
G04 Aperture macros list end*
%TA.AperFunction,ComponentPad*%
%ADD10RoundRect,0.250000X-0.750000X-0.750000X0.750000X-0.750000X0.750000X0.750000X-0.750000X0.750000X0*%
%TD*%
%TA.AperFunction,ComponentPad*%
%ADD11C,2.000000*%
%TD*%
%TA.AperFunction,ComponentPad*%
%ADD12RoundRect,0.250000X-0.750000X0.750000X-0.750000X-0.750000X0.750000X-0.750000X0.750000X0.750000X0*%
%TD*%
%TA.AperFunction,ComponentPad*%
%ADD13RoundRect,0.250000X1.350000X1.350000X-1.350000X1.350000X-1.350000X-1.350000X1.350000X-1.350000X0*%
%TD*%
%TA.AperFunction,ComponentPad*%
%ADD14C,3.200000*%
%TD*%
%TA.AperFunction,ViaPad*%
%ADD15C,0.600000*%
%TD*%
%TA.AperFunction,Conductor*%
%ADD16C,0.200000*%
%TD*%
G04 APERTURE END LIST*
D10*
%TO.P,J2,1,Pin_1_1*%
%TO.N,VM*%
X129460000Y-29000000D03*
D11*
%TO.P,J2,2,Pin_2_2*%
%TO.N,GND*%
X132000000Y-29000000D03*
%TO.P,J2,3,Pin_3_3*%
%TO.N,unconnected-(J2-Pin_3-Pad3)*%
X134540000Y-29000000D03*
%TD*%
D12*
%TO.P,J1,1,Pin_1_1*%
%TO.N,Net-(J1-Pin_1)*%
X187000000Y-85460000D03*
D11*
%TO.P,J1,2,Pin_2_2*%
%TO.N,Net-(J1-Pin_2)*%
X187000000Y-88000000D03*
%TO.P,J1,3,Pin_3_3*%
%TO.N,Net-(J1-Pin_3)*%
X187000000Y-90540000D03*
%TD*%
D13*
%TO.P,D2,1,K_1*%
%TO.N,GND*%
X98120000Y-87500000D03*
D14*
%TO.P,D2,2,A_2*%
%TO.N,Net-(D2-A)*%
X82880000Y-87500000D03*
%TD*%
D15*
%TO.N,VM*%
X133500000Y-89150000D03*
X133500000Y-87000000D03*
%TO.N,Net-(U1-VBAT)*%
X128500000Y-65500000D03*
X151000000Y-68500000D03*
%TO.N,Net-(J1-Pin_3)*%
X132500000Y-88500000D03*
X132500000Y-95300000D03*
%TO.N,Net-(J1-Pin_2)*%
X131000000Y-92900000D03*
X131600000Y-88000000D03*
%TO.N,Net-(J1-Pin_1)*%
X153900000Y-80500000D03*
X146500000Y-80500000D03*
X137401471Y-80598529D03*
%TO.N,GND*%
X142900000Y-83400000D03*
X143000000Y-88500000D03*
%TO.N,Net-(U1-PA12)*%
X125000000Y-76600000D03*
X125000000Y-69000000D03*
%TO.N,VM*%
X132000000Y-90000000D03*
X153000000Y-76500000D03*
%TO.N,Net-(U1-PA8)*%
X143900000Y-78500000D03*
X135100000Y-78297057D03*
X131600000Y-75000000D03*
X128900000Y-74300003D03*
%TO.N,Net-(U1-PA9)*%
X131600000Y-72100000D03*
X127100000Y-72948528D03*
%TO.N,Net-(U1-PB4)*%
X155100000Y-82000000D03*
X153900000Y-82000000D03*
%TO.N,Net-(U1-PA10)*%
X143500000Y-86550000D03*
X144400000Y-82100000D03*
X133500000Y-73600000D03*
X128900000Y-73500000D03*
%TO.N,Net-(U2-VCP)*%
X133500000Y-84500000D03*
X133500000Y-75000000D03*
X135100000Y-75000000D03*
X146200000Y-75000000D03*
%TO.N,Net-(U2-CPH)*%
X134700000Y-82000000D03*
X135000000Y-72400000D03*
%TO.N,Net-(U1-PB0)*%
X144400000Y-85000000D03*
X145600000Y-85000000D03*
X148400000Y-85000000D03*
X148500000Y-94700000D03*
%TO.N,Net-(U1-VBAT)*%
X126500000Y-75400000D03*
X126500000Y-68500000D03*
%TO.N,Net-(U1-PA11)*%
X128834358Y-71043761D03*
X149000000Y-91000000D03*
X123000000Y-69650000D03*
X129500000Y-55500000D03*
%TO.N,Net-(U2-COMPP)*%
X134000000Y-90500000D03*
X134100000Y-72400000D03*
%TO.N,Net-(U1-PB3)*%
X151500000Y-65500000D03*
X123900000Y-67500000D03*
%TO.N,Net-(U1-PB4)*%
X123900000Y-66500000D03*
%TO.N,Net-(U1-PB1)*%
X144400000Y-86000000D03*
X145600000Y-86000000D03*
X153000000Y-86000000D03*
X153434313Y-94100000D03*
%TO.N,Net-(U1-PB2)*%
X144400000Y-87500000D03*
X145600000Y-87500000D03*
X153900000Y-87500000D03*
X154000000Y-93500000D03*
%TO.N,Net-(U1-VREF+)*%
X129500000Y-70600000D03*
X129500000Y-69400000D03*
%TO.N,Net-(U1-VBAT)*%
X125000000Y-59600000D03*
X125000000Y-58000000D03*
%TO.N,Net-(U2-CPL)*%
X135500000Y-81500000D03*
X145600000Y-81500000D03*
%TO.N,Net-(U1-PB4)*%
X131600000Y-70000000D03*
X130400000Y-70000000D03*
X125600000Y-66500000D03*
%TO.N,GND*%
X130000000Y-91500000D03*
%TO.N,Net-(U1-VBAT)*%
X124500000Y-64000000D03*
X126000000Y-65000000D03*
%TO.N,GND*%
X140000000Y-55000000D03*
%TO.N,VM*%
X139000000Y-42500000D03*
X136500000Y-42500000D03*
%TO.N,Net-(U1-VREF+)*%
X129500000Y-61500000D03*
X129500000Y-59000000D03*
%TO.N,GND*%
X137500000Y-35500000D03*
%TO.N,VM*%
X123500000Y-32500000D03*
%TO.N,GND*%
X123000000Y-54000000D03*
X114000000Y-58500000D03*
X116700000Y-70800000D03*
X105000000Y-71000000D03*
X92650000Y-47600000D03*
X84000000Y-53500000D03*
X80000000Y-48000000D03*
X80000000Y-51000000D03*
%TD*%
%TO.N,VM*%
D16*
X133500000Y-87000000D02*
X133500000Y-89150000D01*
%TO.N,Net-(U1-VBAT)*%
X129100000Y-64900000D02*
X128500000Y-65500000D01*
X151748529Y-64900000D02*
X129100000Y-64900000D01*
X152100000Y-65251471D02*
X151748529Y-64900000D01*
X152100000Y-67400000D02*
X152100000Y-65251471D01*
X151000000Y-68500000D02*
X152100000Y-67400000D01*
%TO.N,Net-(J1-Pin_3)*%
X131400000Y-89600000D02*
X132500000Y-88500000D01*
X131400000Y-90400000D02*
X131400000Y-89600000D01*
X132500000Y-91500000D02*
X131400000Y-90400000D01*
X132500000Y-95300000D02*
X132500000Y-91500000D01*
%TO.N,Net-(J1-Pin_2)*%
X131000000Y-88600000D02*
X131600000Y-88000000D01*
X131000000Y-92900000D02*
X131000000Y-88600000D01*
%TO.N,Net-(J1-Pin_1)*%
X153900000Y-80500000D02*
X182040000Y-80500000D01*
X137401471Y-80598529D02*
X146401471Y-80598529D01*
X182040000Y-80500000D02*
X187000000Y-85460000D01*
X146401471Y-80598529D02*
X146500000Y-80500000D01*
%TO.N,GND*%
X142900000Y-88400000D02*
X143000000Y-88500000D01*
X142900000Y-83400000D02*
X142900000Y-88400000D01*
%TO.N,Net-(U1-PA12)*%
X125000000Y-76600000D02*
X125000000Y-69000000D01*
%TO.N,VM*%
X148748529Y-95300000D02*
X137300000Y-95300000D01*
X152000000Y-92048529D02*
X148748529Y-95300000D01*
X137300000Y-95300000D02*
X132000000Y-90000000D01*
X152000000Y-77500000D02*
X152000000Y-92048529D01*
X153000000Y-76500000D02*
X152000000Y-77500000D01*
%TO.N,Net-(U1-PA8)*%
X135302943Y-78500000D02*
X143900000Y-78500000D01*
X135100000Y-78297057D02*
X135302943Y-78500000D01*
X129599997Y-75000000D02*
X131600000Y-75000000D01*
X128900000Y-74300003D02*
X129599997Y-75000000D01*
%TO.N,Net-(U1-PA9)*%
X127948528Y-72100000D02*
X131600000Y-72100000D01*
X127100000Y-72948528D02*
X127948528Y-72100000D01*
%TO.N,Net-(U1-PB4)*%
X155100000Y-82000000D02*
X153900000Y-82000000D01*
%TO.N,Net-(U1-PA10)*%
X143500000Y-83000000D02*
X143500000Y-86550000D01*
X144400000Y-82100000D02*
X143500000Y-83000000D01*
X133400000Y-73500000D02*
X133500000Y-73600000D01*
X128900000Y-73500000D02*
X133400000Y-73500000D01*
%TO.N,Net-(U2-VCP)*%
X133500000Y-75000000D02*
X133500000Y-84500000D01*
X146200000Y-75000000D02*
X135100000Y-75000000D01*
%TO.N,Net-(U2-CPH)*%
X134500000Y-81800000D02*
X134700000Y-82000000D01*
X135000000Y-72400000D02*
X134500000Y-72900000D01*
X134500000Y-72900000D02*
X134500000Y-81800000D01*
%TO.N,Net-(U1-PB0)*%
X145600000Y-85000000D02*
X144400000Y-85000000D01*
X148400000Y-94600000D02*
X148400000Y-85000000D01*
X148500000Y-94700000D02*
X148400000Y-94600000D01*
%TO.N,GND*%
X130000000Y-91500000D02*
X119500000Y-91500000D01*
X119500000Y-91500000D02*
X115500000Y-87500000D01*
X115500000Y-87500000D02*
X98120000Y-87500000D01*
%TO.N,Net-(U1-VBAT)*%
X126500000Y-68500000D02*
X126500000Y-75400000D01*
%TO.N,Net-(U1-PA11)*%
X149000000Y-72000000D02*
X149000000Y-91000000D01*
X148500000Y-71500000D02*
X149000000Y-72000000D01*
X128834358Y-71043761D02*
X129290597Y-71500000D01*
X129290597Y-71500000D02*
X148500000Y-71500000D01*
X123000000Y-66551471D02*
X123000000Y-69650000D01*
X128500000Y-64448529D02*
X127048529Y-65900000D01*
X128500000Y-56500000D02*
X128500000Y-64448529D01*
X123651471Y-65900000D02*
X123000000Y-66551471D01*
X129500000Y-55500000D02*
X128500000Y-56500000D01*
X127048529Y-65900000D02*
X123651471Y-65900000D01*
%TO.N,Net-(U2-COMPP)*%
X134100000Y-90400000D02*
X134000000Y-90500000D01*
X134100000Y-72400000D02*
X134100000Y-90400000D01*
%TO.N,Net-(U1-PB3)*%
X123900000Y-67500000D02*
X149500000Y-67500000D01*
X149500000Y-67500000D02*
X151500000Y-65500000D01*
%TO.N,Net-(U1-PB1)*%
X145600000Y-86000000D02*
X144400000Y-86000000D01*
X153000000Y-93665687D02*
X153000000Y-86000000D01*
X153434313Y-94100000D02*
X153000000Y-93665687D01*
%TO.N,Net-(U1-PB2)*%
X145600000Y-87500000D02*
X144400000Y-87500000D01*
X154000000Y-93500000D02*
X154000000Y-87600000D01*
X154000000Y-87600000D02*
X153900000Y-87500000D01*
%TO.N,Net-(U1-VREF+)*%
X129500000Y-69400000D02*
X129500000Y-70600000D01*
%TO.N,Net-(U1-VBAT)*%
X125000000Y-58000000D02*
X125000000Y-59600000D01*
%TO.N,Net-(U2-CPL)*%
X145600000Y-81500000D02*
X135500000Y-81500000D01*
%TO.N,Net-(U1-PB4)*%
X130400000Y-70000000D02*
X131600000Y-70000000D01*
X123900000Y-66500000D02*
X125600000Y-66500000D01*
%TO.N,Net-(U1-VBAT)*%
X126000000Y-65000000D02*
X125500000Y-65000000D01*
X125500000Y-65000000D02*
X124500000Y-64000000D01*
%TO.N,GND*%
X139000000Y-54000000D02*
X140000000Y-55000000D01*
X123000000Y-54000000D02*
X139000000Y-54000000D01*
%TO.N,VM*%
X136500000Y-42500000D02*
X139000000Y-42500000D01*
%TO.N,Net-(U1-VREF+)*%
X129500000Y-59000000D02*
X129500000Y-61500000D01*
%TO.N,GND*%
X137500000Y-34500000D02*
X137500000Y-35500000D01*
X132000000Y-29000000D02*
X137500000Y-34500000D01*
%TO.N,VM*%
X127000000Y-29000000D02*
X123500000Y-32500000D01*
X129460000Y-29000000D02*
X127000000Y-29000000D01*
%TO.N,GND*%
X116700000Y-60300000D02*
X116700000Y-61200000D01*
X123000000Y-54000000D02*
X116700000Y-60300000D01*
X116700000Y-61200000D02*
X114000000Y-58500000D01*
X116700000Y-70800000D02*
X116700000Y-61200000D01*
X116500000Y-71000000D02*
X116700000Y-70800000D01*
X105000000Y-71000000D02*
X116500000Y-71000000D01*
X89500000Y-50750000D02*
X92650000Y-47600000D01*
X89500000Y-53500000D02*
X89500000Y-50750000D01*
X84000000Y-53500000D02*
X89500000Y-53500000D01*
X80000000Y-48000000D02*
X80000000Y-51000000D01*
%TD*%
M02*
